<?xml version="1.0" encoding="UTF-8" ?>
<!DOCTYPE svg PUBLIC "-//W3C//DTD SVG 1.1//EN" "http://www.w3.org/Graphics/SVG/1.1/DTD/svg11.dtd">
<svg width="198pt" height="197pt" viewBox="0 0 198 197" version="1.1" xmlns="http://www.w3.org/2000/svg">
<g id="#5145cdff">
<path fill="#5145cd" opacity="1.00" d=" M 0.84 0.76 C 66.24 0.75 131.64 0.75 197.04 0.75 C 197.06 66.17 197.04 131.58 197.05 197.00 L 0.84 197.00 C 0.84 131.59 0.83 66.17 0.84 0.76 M 6.73 6.76 C 6.72 68.25 6.72 129.75 6.73 191.24 C 68.23 191.25 129.72 191.25 191.22 191.25 C 191.23 129.75 191.23 68.25 191.22 6.75 C 129.72 6.75 68.23 6.75 6.73 6.76 Z" />
<path fill="#5145cd" opacity="1.00" d=" M 89.61 41.68 C 96.80 36.09 107.25 35.98 115.30 39.72 C 120.59 42.17 123.65 47.77 123.88 53.46 C 120.28 53.47 116.68 53.48 113.09 53.45 C 112.52 50.93 111.48 48.08 108.77 47.20 C 105.13 46.09 100.68 45.96 97.55 48.44 C 95.20 50.28 95.82 54.27 98.59 55.36 C 105.92 58.67 114.85 58.36 121.26 63.70 C 128.16 69.72 126.41 82.15 118.59 86.61 C 110.76 91.14 100.62 91.30 92.43 87.64 C 86.41 84.99 82.74 78.66 82.72 72.18 C 86.50 72.17 90.28 72.17 94.06 72.19 C 94.50 81.05 106.54 83.54 112.49 78.47 C 114.88 76.30 114.04 72.11 111.10 70.88 C 104.09 67.49 95.64 67.56 89.23 62.83 C 82.47 57.87 83.13 46.59 89.61 41.68 Z" />
<path fill="#5145cd" opacity="1.00" d=" M 36.00 37.93 C 39.76 37.92 43.52 37.92 47.27 37.93 C 47.28 44.71 47.27 51.49 47.28 58.28 C 52.89 58.29 58.50 58.28 64.11 58.28 C 64.12 51.50 64.10 44.71 64.12 37.93 C 68.12 37.92 72.12 37.92 76.12 37.93 C 76.12 54.95 76.12 71.97 76.12 89.00 C 72.12 89.00 68.11 89.00 64.11 89.00 C 64.11 82.16 64.11 75.32 64.11 68.49 C 58.50 68.47 52.89 68.48 47.28 68.48 C 47.27 75.32 47.28 82.16 47.28 89.00 C 43.52 89.00 39.76 89.00 36.00 89.00 C 36.00 71.97 36.00 54.95 36.00 37.93 Z" />
<path fill="#5145cd" opacity="1.00" d=" M 132.51 37.93 C 142.37 37.92 152.24 37.92 162.10 37.93 C 162.11 41.32 162.11 44.72 162.10 48.12 C 155.99 48.13 149.89 48.11 143.78 48.12 C 143.77 51.51 143.77 54.89 143.78 58.28 C 149.64 58.29 155.50 58.27 161.36 58.29 C 161.35 61.69 161.35 65.08 161.35 68.48 C 155.50 68.49 149.64 68.47 143.78 68.49 C 143.77 71.92 143.77 75.35 143.78 78.78 C 149.89 78.79 155.99 78.78 162.10 78.79 C 162.11 82.19 162.11 85.59 162.10 89.00 C 152.24 89.00 142.37 89.00 132.51 89.00 C 132.50 71.97 132.50 54.95 132.51 37.93 Z" />
<path fill="#5145cd" opacity="1.00" d=" M 86.27 112.38 C 101.06 110.30 115.54 123.20 115.68 138.03 C 116.02 152.21 103.19 165.06 89.00 164.72 C 75.12 164.56 62.81 151.91 63.15 138.00 C 63.36 125.36 73.79 114.03 86.27 112.38 M 85.26 124.07 C 79.31 125.98 74.61 131.70 74.44 138.03 C 74.23 145.92 81.17 153.19 89.05 153.44 C 97.54 153.68 105.21 145.52 104.33 137.05 C 103.51 128.26 93.86 121.12 85.26 124.07 Z" />
<path fill="#5145cd" opacity="1.00" d=" M 130.48 118.47 C 136.56 113.28 145.09 111.00 152.92 112.80 C 161.90 114.58 169.41 121.50 172.37 130.11 C 168.22 130.12 164.07 130.14 159.92 130.10 C 156.10 122.56 145.25 120.36 138.74 125.71 C 130.38 131.79 130.64 145.94 139.30 151.65 C 145.94 156.57 156.25 153.97 160.00 146.67 C 164.15 146.62 168.30 146.64 172.46 146.66 C 169.59 154.96 162.57 161.76 153.98 163.87 C 145.67 166.14 136.38 163.78 130.01 158.03 C 125.08 153.72 121.98 147.49 121.26 141.00 C 120.41 132.59 124.01 123.90 130.48 118.47 Z" />
<path fill="#5145cd" opacity="1.00" d=" M 28.26 112.93 C 32.01 112.92 35.77 112.92 39.53 112.93 C 39.51 126.53 39.56 140.13 39.50 153.73 C 45.62 153.85 51.73 153.76 57.85 153.79 C 57.86 157.19 57.86 160.59 57.86 164.00 C 47.99 164.00 38.12 164.00 28.25 163.99 C 28.26 146.97 28.25 129.95 28.26 112.93 Z" />
</g>
</svg>
